<svg xmlns="http://www.w3.org/2000/svg" width="632.514" height="156.711">
  <path d="M 632.5141,63.670451 C 616.41148,105.60974 591.22442,136.12267 546.84432,138.0893 449.76598,142.39117 468.20351,33.045343 410.62942,37.021163 386.84641,38.663513 340.94918,159.02942 292.87706,156.67697 236.21991,153.9044 220.72413,59.540891 179.66232,35.118545 138.6005,10.696198 112.50007,30.607569 86.210958,80.669389 83.856377,37.236951 111.77997,-6.7352665 182.37604,1.3208624 228.86198,6.6256446 250.58965,120.0898 292.87706,117.46947 343.14478,114.35464 348.55704,17.950433 399.04506,4.2130927 473.02095,-15.915097 475.53882,102.17721 546.84432,108.26439 572.74184,110.4752 603.56638,91.108577 632.5141,63.670451 z" fill="#edd400"/>
  <path d="M 0,93.040568 C 16.10262,51.101268 41.28968,20.588337 85.66978,18.621707 182.74812,14.319837 164.31059,123.66567 221.88468,119.68985 245.66769,118.0475 291.56492,-2.3184129 339.63704,0.03403713 396.29419,2.8066071 411.78997,97.170124 452.85179,121.59246 c 41.06182,24.42235 67.16225,4.51098 93.45136,-45.550832 2.35458,43.432432 -25.56901,87.404642 -96.16508,79.348522 C 403.65212,150.08536 381.92445,36.621208 339.63704,39.241538 289.36932,42.356368 283.95706,138.76057 233.46904,152.49791 159.49315,172.62611 156.97528,54.533798 85.66978,48.446618 59.77226,46.235808 28.94772,65.602438 0,93.040568 z" fill="#edd400"/>
</svg>
