<svg xmlns="http://www.w3.org/2000/svg" width="591.954" height="159.62">
  <path d="M 591.34945,67.103901 C 575.24683,109.04319 550.05977,139.55612 505.67967,141.52275 408.60133,145.82462 427.03886,36.478793 369.46477,40.454613 345.68176,42.096963 299.78453,162.46287 251.71241,160.11042 195.05526,157.33785 174.2028,94.625817 140.74153,60.242663 120.48238,39.425353 113.26376,58.256073 78.832864,72.355371 L 110.01855,116.38707 -0.60472597,104.75965 32.322354,0.52438259 57.655634,41.224663 c 31.81246,-11.38955 69.555746,-43.9901504 102.254606,-12.53582 33.71932,32.435954 49.51476,94.834407 91.80217,92.214077 50.26772,-3.11483 55.67998,-99.519037 106.168,-113.2563774 73.97589,-20.1281896 76.49376,97.9641174 147.79926,104.0512974 25.89752,2.21081 56.72206,-17.155813 85.66978,-44.593939 z" fill="#75507b"/>
</svg>
