<svg xmlns="http://www.w3.org/2000/svg" width="591.954" height="159.62">
  <path d="M -0.60472597,93.564942 C 15.49789,51.62565 40.684955,21.11272 85.065056,19.14609 182.14339,14.84422 163.70586,124.19005 221.27995,120.21423 245.06296,118.57188 290.96019,-1.7940303 339.03231,0.55841973 395.68946,3.3309897 416.54192,66.043026 450.00319,100.42618 c 20.25915,20.81731 27.47777,1.98659 61.90867,-12.112708 L 480.72617,44.28177 591.34945,55.909196 558.42237,160.14446 533.08909,119.44418 C 501.27663,130.83373 463.53334,163.43433 430.83448,131.98 397.11516,99.544046 381.31972,37.14559 339.03231,39.76592 288.76459,42.88075 283.35233,139.28496 232.86431,153.0223 158.88842,173.15049 156.37055,55.058186 85.065056,48.971 59.167535,46.76019 28.342997,66.126816 -0.60472597,93.564942 z" fill="#edd400"/>
</svg>
