<?xml version="1.0" encoding="UTF-8" standalone="no"?>
<!-- Created with Inkscape (http://www.inkscape.org/) -->

<svg
   xmlns:dc="http://purl.org/dc/elements/1.1/"
   xmlns:cc="http://creativecommons.org/ns#"
   xmlns:rdf="http://www.w3.org/1999/02/22-rdf-syntax-ns#"
   xmlns:svg="http://www.w3.org/2000/svg"
   xmlns="http://www.w3.org/2000/svg"
   xmlns:sodipodi="http://sodipodi.sourceforge.net/DTD/sodipodi-0.dtd"
   xmlns:inkscape="http://www.inkscape.org/namespaces/inkscape"
   width="83.186829mm"
   height="83.241402mm"
   viewBox="0 0 83.186829 83.241402"
   version="1.1"
   id="svg464"
   inkscape:version="0.92.4 5da689c313, 2019-01-14"
   sodipodi:docname="logo.svg">
  <defs
     id="defs458" />
  <sodipodi:namedview
     id="base"
     pagecolor="#ffffff"
     bordercolor="#666666"
     borderopacity="1.0"
     inkscape:pageopacity="0.0"
     inkscape:pageshadow="2"
     inkscape:zoom="2.5491622"
     inkscape:cx="157.20346"
     inkscape:cy="157.30659"
     inkscape:document-units="mm"
     inkscape:current-layer="layer1"
     showgrid="false"
     fit-margin-top="0.1"
     fit-margin-left="0.1"
     fit-margin-bottom="0.1"
     fit-margin-right="0.1"
     inkscape:window-width="1920"
     inkscape:window-height="1035"
     inkscape:window-x="1366"
     inkscape:window-y="22"
     inkscape:window-maximized="0" />
  <metadata
     id="metadata461">
    <rdf:RDF>
      <cc:Work
         rdf:about="">
        <dc:format>image/svg+xml</dc:format>
        <dc:type
           rdf:resource="http://purl.org/dc/dcmitype/StillImage" />
        <dc:title></dc:title>
      </cc:Work>
    </rdf:RDF>
  </metadata>
  <g
     inkscape:label="Layer 1"
     inkscape:groupmode="layer"
     id="layer1"
     transform="translate(-52.144681,-107.96859)">
    <g
       transform="matrix(0.26458333,0,0,0.26458333,49.571121,105.09313)"
       id="g13899"
       style="fill:#008080"
       inkscape:export-xdpi="96"
       inkscape:export-ydpi="96">
      <path
         style="fill:#ffffffdd;stroke-width:0.30573249"
         d="m -265.31445,-1493.668 c -1.51817,-0.01 -3.0365,0.011 -4.55469,0.051 -56.65248,0.9364 -111.1406,35.2797 -136.28516,86.0684 -22.94521,44.8172 -22.40715,101.4621 2.14844,145.707 24.91041,46.4018 74.81191,78.6692 127.56836,81.6641 56.00547,3.9548 113.10226,-24.5565 142.75195,-72.5528 21.99946,-34.8534 29.9689,-78.377 20.50586,-118.6191 -0.20192,3.1472 -3.46611,5.4588 -4.5957,7.5469 2.41344,4.6612 -3.68775,8.0008 -2.07422,12.3632 1.09191,7.8328 0.69859,16.091 0.98242,23.7344 4.41228,5.2977 4.76739,13.1581 2.38281,19.2403 6.25223,2.4238 1.46879,11.2217 -3.6582,11.7871 -2.27964,0.805 -5.52715,-0.8893 -5.35156,2.7754 -1.77692,5.0252 -4.07995,10.0932 -2.78125,15.3769 0.72432,2.1789 3.31797,5.5629 0.59961,8.0938 -2.49404,1.0647 -3.25426,2.8225 -4.12305,5.2949 -2.37213,3.2172 -7.92877,0.6784 -9.34179,5.3828 -7.01874,12.0468 -16.03647,23.2212 -26.63282,32.2832 -2.7227,2.0435 -6.09963,4.317 -4.45117,8.1348 0.81594,6.1278 -5.24859,14.5063 -11.71094,10.5175 -1.9399,-2.1056 -5.04148,-1.7177 -7.57812,-1.291 -2.59472,1.1127 -4.62652,2.299 -2.90039,5.1211 0.52558,9.0722 -10.12701,11.5988 -16.54492,14.6133 -5.50855,2.5272 -12.17118,2.9481 -17.62696,0.916 -5.98216,3.9233 -11.31598,-5.0021 -17.43945,-1.5586 -14.51157,2.6585 -29.36641,0.4224 -43.86523,0.8594 -3.5838,-1.385 -6.83678,-1.5539 -10.07422,0.7168 -4.73434,2.313 -10.78053,-1.1797 -10.12305,-6.668 -5.66229,-2.7776 -12.49067,-3.8396 -17.86914,-7.457 -4.18054,-3.3311 -11.05509,-0.046 -13.67969,-5.5527 -2.03829,-5.1841 -8.50465,-5.7041 -12.16211,-9.5625 -10.60661,-7.6082 -19.65687,-17.6657 -28.35156,-26.9122 -6.05793,2.1513 -14.51245,-5.2061 -9.81055,-11.0312 3.83241,-2.1333 -1.91001,-5.8808 -2.73242,-8.459 -0.2449,-3.9396 -4.87235,-1.3844 -6.63281,-4.2461 -8.82203,-7.3799 -12.4124,-20.0562 -11.81641,-31.0137 1.42736,-1.4702 3.52701,-1.8523 1.46485,-3.9882 -1.8964,-3.1053 -0.79731,-6.7484 0.0976,-9.6953 -2.97511,-18.0027 -1.63881,-36.4457 1.23047,-54.3223 -1.50869,-4.5291 -3.68206,-13.2747 2.93945,-14.6113 3.66763,1.2964 2.11671,-4.9501 4.04493,-6.8164 2.0213,-7.2316 7.67758,-13.139 7.88867,-20.9219 0.9992,-5.0875 7.01299,-5.1985 8.5332,-9.8477 8.21831,-11.9822 18.72261,-22.5436 29.54883,-31.8847 -1.73664,-5.6295 1.22517,-15.0311 8.63086,-12.7989 2.79465,0.046 5.11497,6.239 7.25586,2.0977 2.00945,-2.4945 8.53163,-1.7128 6.54883,-6.0234 0.9059,-9.0019 11.14478,-13.0314 18.74609,-15.0528 5.13936,-0.8259 12.22317,-3.227 16.18945,0.5391 3.63048,-2.4084 9.16711,-2.5014 11.8086,1.3847 14.21221,-2.4552 28.86058,-1.4606 43.03711,-0.4941 3.58179,-3.453 8.84863,-0.197 12.1875,0.2891 4.15306,-5.4525 13.21601,-0.9432 12.57226,5.4961 0.62891,2.4081 4.92665,1.0745 6.55469,2.7675 6.50513,1.9874 12.40452,7.0752 19.34961,6.1211 3.68138,0.665 6.49159,3.8777 7.41211,7.336 5.03291,3.0332 9.25721,8.1624 15.42383,8.3769 3.12508,1.0961 4.16432,4.7625 7.77343,4.5606 4.96812,1.457 7.30834,7.1431 6.39453,11.6289 2.22929,2.3609 4.21552,8.5506 8.15235,4.4687 2.01708,-0.9376 5.00376,-1.2853 6.6875,-1.6992 -28.81832,-37.4164 -75.58148,-60.0251 -122.64453,-60.2344 z m -37.49414,11.586 c -12.37444,1.5219 -19.57896,1.6438 -27.43164,10.2597 -5.42963,6.699 16.5288,12.6914 3.49218,18.7657 -5.42775,-5.7522 -16.11069,8.5804 -19.10156,-5.2754 -11.42847,-11.883 -8.56959,12.5108 -2.85742,12.8457 2.07056,10.9235 5.60719,-3.2628 10.38867,1.4316 -9.69946,0.3376 -10.77315,25.3763 -17.49023,10.8164 -8.29461,-11.5013 -10.92911,0.9275 -15.35352,5.8223 -6.48776,9.1214 7.99679,1.6628 10.99023,-1.1406 14.78925,3.4979 -4.03425,7.8499 1.12891,15.5761 6.1121,-0.4785 9.22867,10.9804 13.89453,0.8145 9.61273,-3.9808 10.08631,-17.1797 16.58985,-20.1543 17.92331,8.6473 28.25976,-14.1378 44.51562,-8.4492 2.26201,-10.699 -4.347,-20.8177 -17.44726,-18.8926 7.11468,-7.4117 11.60569,2.2296 20.94921,-1.6719 -4.30299,6.8799 0.3084,20.7883 -1.10742,28.4492 8.13752,2.3112 5.77111,-0.4193 1.82032,5.1719 5.57705,5.0572 0.0961,19.1171 8.625,20.4961 -4.82502,0.7295 -3.18747,15.3621 6.13671,10.7578 0.0563,-5.6193 6.56816,-19.1904 -4.17968,-18.9785 3.96909,-5.9658 1.69596,-23.703 12.74218,-17.8359 -6.91819,-5.4262 -1.9179,-17.9311 -7.06054,-26.3477 -10.72573,9.2859 -5.15942,-6.2115 -10.79883,-11.2695 -8.36252,4.4766 -1.70204,-7.3655 -11.14453,-6.3203 -12.54486,2.7457 7.66789,12.3589 -1.72657,9.9433 -8.2914,-4.3555 -6.91486,-2.4066 -3.04296,-9.3144 -2.19032,-12.0097 -13.37627,2.8995 -12.79297,-3.2442 z m 73.69531,0.875 c -4.67329,10.7061 -9.54542,-6.5004 -16.17383,4.7929 -15.02885,-5.9473 -1.68944,17.9982 -7.55469,21.8028 -6.68289,14.6922 8.68535,13.6187 17.40235,14.0215 7.63551,15.9642 32.60923,-7.7088 31.45898,11.498 4.0621,15.1091 24.88602,-9.3965 13.48242,4.1113 5.53853,6.9024 15.44439,16.5977 24.17774,18.9688 -4.28884,15.3241 3.2366,26.3586 10.44922,38.3965 -3.13433,8.8061 5.3286,9.7065 -3.91407,11.0507 -6.25969,-4.5689 -7.37248,10.6614 -8.32617,2.4375 -6.09275,-2.2843 -13.46107,4.5107 -21.60351,3.1817 -2.46615,7.241 -1.14515,2.9213 -7.91602,1.0547 -12.30547,7.6276 3.42206,12.1747 11.35547,10.9004 3.06983,-9.1787 8.52591,-3.7331 15.10351,-1.7246 10.7052,-3.1183 1.83754,7.8744 8.49219,8.871 3.32952,-10.7177 20.11274,2.0412 24.01563,-9.9121 -11.65647,-9.5362 15.06444,-0.5336 10.73828,-11.6074 1.23479,-2.0937 12.93695,-8.2029 2.13672,-11.6328 -5.92781,7.5941 -8.15823,2.0924 -1.80664,-4.1191 3.79822,8.295 17.61618,-4.8764 6.13672,-8.3067 9.26027,-0.4601 2.45081,-17.2928 0.48632,-21.1992 -7.08307,-17.0086 -12.41198,-0.658 -22.12695,-0.1172 -2.98882,-12.0566 -16.50956,0.2794 -3.20703,2.3789 -3.48473,6.7139 1.56751,8.9916 4.15625,11.543 -12.23916,4.7558 -18.94971,-24.4001 -5.53125,-26.3203 -1.3941,-7.0748 12.3117,1.2874 9.10156,-8.4922 -6.15623,0.9267 -8.40854,-0.5368 0.30274,-2.1641 5.85112,-12.3464 -13.16415,-7.006 -17.00977,-1.3437 6.41068,14.923 -7.37497,-0.027 -13.72266,-3.0176 1.83685,-3.2584 16.63535,-18.07 -1.02929,-18.3672 -0.36797,-5.3429 -8.94575,-6.4785 -5.23047,0.7129 8.27261,2.9075 3.24645,19.3468 -2.10156,11.6152 -9.88176,-2.1831 -10.5958,-8.6984 -18.44922,-15.3652 6.55709,-3.1088 7.18511,-17.5625 -1.13477,-16.6289 -2.7087,1.5933 -10.55666,8.5603 -4.39062,2.377 -2.61145,-12.4335 -11.06205,9.978 -16.80274,-1.2071 -17.30492,0.7582 1.98992,-16.4733 -10.96484,-18.1894 z m -20.03711,56.2246 -3.42188,0.1367 -2.59375,0.1 c -0.23097,8.7641 14.79398,10.7901 24.87891,12.6426 3.20179,8.1693 14.76689,20.9789 17.80078,5.3105 -4.63747,-15.6163 -22.70065,-18.2343 -36.66406,-18.1875 z m -37.33789,0.1152 c -9.10483,5.0376 -24.21203,1.9624 -30.61914,15.0547 -12.09406,10.6905 11.99137,21.8115 8.95898,3.7168 5.16071,-9.2482 34.3848,-4.2753 21.66016,-18.7715 z m 152.37305,3.5957 c -0.67246,3.3266 1.04929,7.7873 -2.99219,9.711 -3.43713,0.4011 -0.3067,4.0089 0.6289,5.4257 2.28124,-2.4239 5.52025,-4.1442 8.9004,-4.1445 -1.9788,-3.7704 -4.26388,-7.4418 -6.53711,-10.9922 z m -230.82227,6.7832 c -4.70806,0.045 -7.97282,3.4549 -11.36523,6.0996 -1.47532,-3.446 -14.24688,-7.0668 -14.94336,-1.7441 -3.40258,4.9852 5.56071,7.5215 3.64648,10.0976 -15.55055,-5.715 7.40121,11.7927 -2.99023,13.7696 -1.60106,10.8613 -7.89873,9.8583 -16.93164,6.9375 -1.8991,7.1884 3.79885,9.5954 0.0254,17.2031 -1.31272,12.1901 11.785,13.4115 21.8789,8.7852 8.45142,11.5226 21.88378,-1.2502 16.01172,-12.6954 12.70068,-7.7072 2.83132,-21.4318 5.53906,-32.996 15.12582,3.3283 10.60108,-15.7864 -0.87109,-15.4571 z m 83.43164,1.2852 c -8.16988,5.2273 -18.37856,5.9923 -19.125,16.875 8.63504,11.9419 5.01756,-9.5942 16.42188,-8.3301 7.68894,0.6243 14.34527,-3.5005 2.70312,-8.5449 z m 31.2832,0.75 c -0.38034,-5e-4 -0.76132,0.013 -1.14257,0.037 -11.66578,4.7721 18.18162,7.6839 18.70703,15.4785 l 2.66406,-0.5098 c 2.70459,-7.3845 -8.43797,-14.9882 -20.22852,-15.0039 z m 1.12891,8.7324 c -6.84968,5.8616 -5.42414,12.9796 7.78516,8.0898 -6.7203,-3.1822 -5.08317,-3.2974 -7.78516,-8.0898 z m -30.18945,3.2324 c -2.72727,0.1336 -3.2483,5.7136 -1.22657,7.1035 9.79181,1.9523 7.69644,-6.298 1.22657,-7.1035 z m 73.64062,0.1856 c -6.07991,0.032 -17.87617,5.1402 -24.35156,4.8554 l -2.66406,0.5098 c -10.63593,0.4727 -25.66591,8.6343 -34.14453,3.0527 -6.04325,1.0596 -16.90154,3.6499 -27.67969,0.7266 -9.74736,2.2905 -29.82818,-13.118 -30.75391,0.5703 3.89891,15.8867 7.72414,31.959 7.9043,48.4688 -5.42216,9.0498 0.5875,10.463 -0.47461,21.2558 2.2838,15.2444 -10.87158,35.4336 -5.29102,47.1055 16.24811,-5.5668 33.23434,-9.0472 50.39063,-10.0234 6.50254,-4.6081 14.56736,8.7918 14.07617,-0.1016 18.83058,-0.073 37.55674,3.1554 55.64648,8.2402 4.41564,2.9363 6.15385,2.7409 6.47657,0.9668 0.32271,-1.7741 -0.76975,-5.1287 -2.01953,-8.5137 -4.8096,-18.2639 -15.25688,-47.5991 -6.84571,-62.0273 -8.41754,-11.756 0.88861,-36.5214 3.4961,-53.0371 -0.34759,-1.5056 -1.73899,-2.0593 -3.76563,-2.0488 z m 8.8418,4.3965 c -5.26399,0.4174 -3.69246,7.302 -4.76367,10.5234 15.87946,0.8272 13.17112,13.6819 19.57226,25.0918 1.78474,11.3175 3.87072,-0.2308 8.42188,-1.9121 -2.70318,-13.2716 -6.39158,-29.7744 -22.08399,-33.6992 -0.41451,-0.033 -0.79554,-0.032 -1.14648,0 z m -136.79102,4.6406 c -14.43964,3.1537 -18.65146,18.7852 -18.72656,31.7129 -4.66646,16.4112 10.85378,9.1088 10.4082,-3.2188 -4.65319,-14.2014 27.96683,-19.2623 8.31836,-28.4941 z m 133.24805,15.6972 c -0.33151,-0.023 -0.66283,-0.019 -0.99023,0.012 -13.16199,4.463 17.10811,12.6455 7.23242,22.7363 15.81756,3.6477 4.03468,-22.027 -6.24219,-22.7461 z m -66.94336,0.4551 h 15.38672 l 24.10742,71.7617 5.44922,4.3282 h -26.125 l 5.53125,-4.3282 -6.25195,-20.1289 c 0,0 -38.21609,-0.043 -39.89844,0 -9.37615,0.2404 -17.45138,-3.3785 -14.67383,-16.6484 2.77755,-13.2699 27.80308,-1.9085 14.4336,6.9141 3.91813,-13.8664 -11.61931,4.2533 2.16406,4.4453 h 36.05273 l -11.36719,-36.7285 -10.97265,32.8398 h -8.17383 z m -59.47266,1.6992 c -4.48132,-0.022 -8.65725,3.3936 -9.69726,7.7188 -3.16116,4.8158 -7.13435,23.5031 2.20312,14.7246 -2.90459,-11.1281 21.11513,-15.9817 7.49414,-22.4434 z m 5.2461,15.1602 c -1.31871,3.2109 -16.37741,1.1884 -6.47852,6.7461 -0.0999,7.173 12.39483,-0.4507 6.47852,-6.7461 z m 119.95508,0.957 -2.17774,0.4004 -1.84179,1.4024 c -2.2037,12.7008 13.73824,2.0318 4.01953,-1.8028 z m -160.58594,9.793 c -4.84344,9.4856 -16.65832,1.2609 -25.0918,7.1601 7.13636,9.0194 -2.0368,7.857 -9.83594,9.209 -2.10192,5.6727 -1.64642,7.5614 -7.73828,10.9395 -0.77625,14.1892 15.93666,-5.7511 8.03125,6.5 -3.24004,10.9109 -0.97483,1.4428 -7.46289,0.1992 -12.10698,4.7528 4.92589,12.1186 -5.70312,15.1953 1.2577,6.8269 3.44415,23.0297 13.84765,27.3867 0.99691,-9.5876 19.58486,-13.7953 13.52735,-1.1074 3.05007,4.2952 3.01501,7.2847 1.41406,9.9805 0.15918,-0.8774 -0.17705,-2.1 -1.34375,-3.7598 l -0.23242,-0.043 -0.23438,0.01 c -10.65195,3.2637 -2.15635,6.9782 0.88477,5.1309 -1.83235,2.3034 -4.68001,4.5067 -7.54297,7.2832 3.28478,10.0219 14.89258,-1.627 20.6875,-3.1875 -8.95286,-8.2974 2.09835,-4.7833 8.4375,1.2344 6.06846,-0.5984 14.43601,-6.0017 12.42578,-13.0274 -18.81792,2.4299 -7.30429,-18.6641 -13.59961,-28.3672 -8.79608,-1.7133 -3.08575,-14.4405 -7.53515,-13.5586 -8.15149,-10.894 6.75508,-14.5763 12.16796,-13.9726 6.06903,-4.3817 21.54484,0.8099 22.1875,-9.1172 -0.24515,6.5828 12.84121,1.7922 7.67774,6.9551 -1.42511,11.1071 13.1617,-1.6485 3.1543,-4.3692 3.25079,-7.7703 -8.92745,-9.8674 -16.35938,-9.457 -2.57768,9.5262 -8.1698,4.0064 -13.52148,2.082 -10.23627,1.7719 -5.97427,-5.4238 -8.24219,-9.2988 z m 174.53906,17.291 c -7.82097,4.0026 -7.77179,16.2865 -16.67969,20.3184 8.35132,12.685 21.77965,-12.3275 16.67969,-20.3184 z m -15.16211,0.029 c -2.38562,-0.087 -3.74106,2.3814 -3.90625,4.4141 0.67154,8.628 5.35483,5.6071 7.79297,3.2968 8.58369,-3.0624 -1.42341,-5.6103 -3.88672,-7.7109 z m 53.19141,0.3027 c -13.60813,-0.2036 -5.67573,10.6824 -7.59961,17.5586 -12.43818,8.7789 -2.65168,21.1568 -4.81641,31.7149 -9.60034,-2.1239 -10.18724,10.5914 -18.38672,10.9297 -3.42118,2.8872 16.09159,12.7373 23.98633,12.3183 -7.87842,-3.7952 5.90837,-17.7517 7.05469,-11.8808 1.7268,3.4298 20.01607,4.1635 13.67578,-1.7852 10.79748,-3.9034 3.22731,-3.0153 -3.40625,-5.5195 0.53344,-0.5753 0.92104,-1.1696 1.19531,-1.7774 2.30736,1.7179 9.19956,1.0312 3.50196,-4.705 -1.33341,0.5782 -2.28098,1.1292 -2.94727,1.6484 -0.1677,-5.1346 -4.6716,-10.4001 2.50781,-12.2188 -1.68204,-16.6733 15.66868,0.599 17.2793,-11.4218 -7.68848,-1.8171 0.81877,-7.882 -1.82422,-13.2559 -1.6287,-17.5702 -20.54501,-4.4794 -30.2207,-11.6055 z m -25.10742,0.041 c -1.4274,0.035 -2.99175,0.9384 -3.67188,2.1836 -4.23217,5.1237 -4.85288,12.0351 -7.0293,18.0976 -3.27162,10.9215 -9.47699,9.6921 -13.98242,13.6836 0.35098,3.5393 2.62382,7.6189 6.5625,7.8203 5.50585,0.2648 10.12772,-3.6507 13.53711,-7.5547 2.68481,-3.1922 4.24081,-7.2917 4.20899,-11.4707 0.83685,-7.0241 3.46715,-13.8594 2.97265,-21.0156 -0.45997,-1.2729 -1.48746,-1.7712 -2.59765,-1.7441 z m -160.375,2.0878 c -12.00369,3.7247 1.19381,21.6095 7.5625,24.0586 17.12462,-1.4878 -8.13784,-6.3299 0.19336,-14.9726 -7.6069,6.5708 -3.53795,-6.0384 -7.75586,-9.086 z m -12.14844,6.4708 c -1.26569,0.152 -2.01266,1.664 -3.13477,2.0976 -1.89015,7.4025 0.92165,24.3407 11.07813,31.3613 8.4472,9.1792 18.3667,2.3928 13.10742,-6.9004 -17.06343,2.8103 -10.21026,-19.641 -20.47461,-26.5332 -0.20462,-0.041 -0.39535,-0.047 -0.57617,-0.025 z m 60.92773,2.3789 h 7.69141 l -5.04688,15.5507 2.16407,4.3282 h -14.42578 l 4.08789,-4.3282 z m 4.37305,37.0195 c -3.00763,0.1483 -4.19161,4.7951 -0.66992,5.5801 -2.45081,14.9251 15.51725,-4.3641 1.29492,-5.5489 -0.21585,-0.033 -0.42449,-0.039 -0.625,-0.029 z m 30.15625,0.5762 c -1.8369,-0.1874 -0.9652,4.1122 -2.98438,1.3378 -8.54304,6.372 14.89445,8.1404 3.38868,-1.2382 -0.14819,-0.056 -0.28184,-0.087 -0.4043,-0.1 z m 19.09961,0.8105 c -5.76267,5.7577 -9.59399,15.441 -20.08984,11.9375 -12.18152,6.0978 0.82311,-0.7419 -4.38282,-7.332 -10.42355,-4.3565 -13.3687,18.8254 -3.13086,19.4004 -5.39649,2.2733 -1.72962,19.3134 -9.18945,15.9218 -9.34016,-0.7257 1.29896,5.1804 0.70313,9.7207 -1.84843,8.8927 0.0855,21.9721 9.7539,13.8008 -2.81221,11.8487 6.70335,19.6522 17.07031,20.4688 0.56346,-2.3234 11.01965,9.6067 12.83008,0.8945 5.20116,7.6115 17.41869,1.5387 26.19336,-2.75 13.24581,-8.3234 -6.32412,-9.9759 -3.50976,-18.082 -4.12777,-1.3284 12.40038,-10.0451 0.57422,-9.7422 -2.60368,7.5654 -10.4141,1.7904 -12.57813,9.0508 -10.92234,-8.7656 14.03719,-15.9145 22.08008,-11.3457 -0.56766,5.0963 -11.05444,10.0172 2.51562,9.7148 1.20013,3.3132 11.92851,9.8977 6.5293,-0.6973 -9.08256,-0.5392 -1.25848,-6.3587 1.81055,1.377 6.3887,18.1935 14.86421,-7.6323 4.02929,-7.3438 -1.10405,-11.0767 -1.12765,-4.23 -7.48437,-3.3613 -0.49996,-2.2874 9.43282,-11.7556 11.23047,-18.6211 7.38771,-2.7894 11.3551,-18.8824 -0.0215,-13.209 -0.40951,-8.2958 -7.6448,-4.5005 -8.83008,1.5098 -10.07849,2.5675 -8.16707,16.6832 -15.63476,17.9434 -16.53618,-7.6603 -26.0154,10.4919 -40.34961,9.6718 -7.70414,2.9575 -5.06804,-2.721 -7.37109,-10 -2.59432,-0.7927 -3.73208,-0.9008 -4.04493,-0.9043 0.44582,-0.015 2.08161,-0.2687 3.50391,-2.2539 0.0724,-4.331 -8.07091,-16.2705 -0.64844,-17.0332 7.5431,0.6512 27.12959,-8.0989 18.44141,-18.7363 z m -63.69336,1.5957 c -12.08078,11.7615 11.7975,16.5286 19.94531,18.5606 4.48242,-7.2338 -16.12374,-11.0596 -19.94531,-18.5606 z m 78.38672,1.1934 -1.63281,0.4004 -1.13868,0.9316 c 2.55619,14.9653 -14.0287,14.017 -24.84375,18.5273 -6.94406,12.3667 9.32213,8.0341 16.03125,5.5821 12.14569,-0.6644 28.45157,-21.9084 11.58399,-25.4414 z m -91.08789,2.5781 c -17.31454,2.8379 -2.36325,23.5529 8.85156,24.1328 7.86225,-0.036 31.123,8.7312 23.83398,-2.3516 -8.71744,-8.7006 -28.64177,-4.2358 -32.11328,-21.123 z m -37.18946,15.7949 c -1.84175,0.097 -2.75267,2.1574 -2.89843,3.7402 -17.06777,0.8021 6.38015,13.6789 1.79297,23.3536 2.7855,-1.2487 9.06951,-2.0911 12.24804,5.9004 -1.25375,3.4518 -5.22937,6.9825 -3.79687,13.1191 2.00137,11.8825 18.29217,-8.8879 10.58984,3.7949 5.65985,4.6251 5.72102,-4.3502 11.34571,-4.8183 4.47567,5.2641 20.71549,6.0528 10.61132,16.5468 0.2001,10.6707 8.34178,0.9477 11.83399,1.8946 11.53482,6.9869 23.99988,-8.6547 14.58593,-20.3614 12.46792,-10.7021 -2.81436,-20.0382 -14.68945,-16.5488 -5.48923,-16.3256 -30.69156,6.9592 -30.60156,-10.0644 -8.59354,-8.696 -10.28861,-11.3139 -20.64063,-16.5508 -0.13111,-0.012 -0.25808,-0.012 -0.38086,-0.01 z m 187.3711,7.6621 c -4.35502,0.8941 -6.94321,4.5766 -10.0586,7.168 -11.9451,-11.7423 -6.804,10.8761 3.90821,10.1699 -1.52289,-7.6966 11.73215,-12.7534 6.15039,-17.3379 z"
         transform="translate(433.01192,1504.9163)"
         id="path13897"
         inkscape:connector-curvature="0" />
    </g>
  </g>
</svg>
